# Blender v2.91.0 OBJ File: 'Toyota-8FG.blend'
# www.blender.org
mtllib Custom_collider_mesh.mtl
o Chassie.001_Chassie_T8FD-body.015
v -1.164838 0.758119 1.566743
v -1.180131 0.779017 1.550023
v -1.129993 0.739609 1.592545
v -1.054132 0.725331 1.636619
v -0.990285 0.714206 1.670941
v -0.762103 0.709471 1.735963
v -0.674792 0.709268 1.737907
v -1.054132 0.594117 1.636619
v -0.990285 0.593981 1.670941
v -0.863971 0.593928 1.715764
v -1.180131 0.594771 1.550023
v -0.184746 0.758119 1.566743
v -0.169452 0.779017 1.550023
v -0.219591 0.739609 1.592545
v -0.295451 0.725331 1.636619
v -0.587480 0.709471 1.735963
v -0.485613 0.709797 1.715764
v -0.169452 0.594771 1.550023
v -1.129993 0.594291 1.592545
v -0.485613 0.593928 1.715764
v -1.164838 0.594517 1.566743
v -0.863971 0.709797 1.715764
v -0.359299 0.714206 1.670941
v -0.359299 0.593981 1.670941
v -0.295451 0.594117 1.636619
v -0.219591 0.594291 1.592545
v -0.184746 0.594517 1.566743
v -0.762103 0.593924 1.735963
v -0.674792 0.593921 1.737907
v -0.587480 0.593924 1.735963
vn 0.0000 0.0000 1.0000
vn -0.1089 0.0000 0.9940
vn -0.1088 0.0000 0.9940
vn -0.4091 0.0000 0.9125
vn -0.4894 0.0000 0.8720
vn -0.4880 0.0000 0.8729
vn -0.4051 0.0000 0.9143
vn -0.2659 0.0000 0.9640
vn -0.2651 0.0000 0.9642
vn -0.5573 0.0000 0.8303
vn -0.6929 0.0000 0.7210
vn -0.6692 0.0000 0.7431
vn -0.5495 0.0000 0.8355
vn -0.7379 0.0000 0.6749
vn 0.1088 0.0000 0.9940
vn 0.1089 0.0000 0.9940
vn 0.4091 0.0000 0.9125
vn 0.4051 0.0000 0.9143
vn 0.4880 0.0000 0.8729
vn 0.4894 0.0000 0.8720
vn 0.2659 0.0000 0.9640
vn 0.2651 0.0000 0.9642
vn 0.5573 0.0000 0.8303
vn 0.5495 0.0000 0.8355
vn 0.6692 0.0000 0.7431
vn 0.6929 0.0000 0.7210
vn 0.7378 0.0000 0.6749
usemtl Toyota_8FG_Chassie_Orange
s 1
f 7//1 6//2 28//3 29//1
f 5//4 4//5 8//6 9//7
f 22//8 5//4 9//7 10//9
f 3//10 1//11 21//12 19//13
f 6//2 22//8 10//9 28//3
f 4//5 3//10 19//13 8//6
f 1//11 2//14 11//14 21//12
f 7//1 29//1 30//15 16//16
f 23//17 24//18 25//19 15//20
f 17//21 20//22 24//18 23//17
f 14//23 26//24 27//25 12//26
f 16//16 30//15 20//22 17//21
f 15//20 25//19 26//24 14//23
f 12//26 27//25 18//27 13//27
